<?xml version="1.0" standalone="no"?>
<!DOCTYPE svg PUBLIC "-//W3C//DTD SVG 20010904//EN"
 "http://www.w3.org/TR/2001/REC-SVG-20010904/DTD/svg10.dtd">
<svg version="1.0" xmlns="http://www.w3.org/2000/svg"
 width="512.000000pt" height="512.000000pt" viewBox="0 0 512.000000 512.000000"
 preserveAspectRatio="xMidYMid meet">
<metadata>
Created by potrace 1.11, written by Peter Selinger 2001-2013
</metadata>
<g transform="translate(0.000000,512.000000) scale(0.100000,-0.100000)"
fill="#000000" stroke="none">
<path d="M2378 5105 c-2 -1 -37 -6 -78 -9 -104 -10 -128 -13 -269 -43 -646
-132 -1226 -524 -1602 -1083 -35 -52 -67 -98 -72 -101 -5 -3 -9 -10 -9 -15 0
-5 -20 -46 -45 -92 -24 -45 -66 -132 -92 -192 -26 -61 -51 -107 -56 -103 -4 5
-5 3 -1 -4 3 -7 -7 -53 -24 -103 -27 -84 -47 -151 -55 -190 -23 -105 -45 -222
-56 -295 -14 -99 -18 -492 -6 -590 25 -194 64 -377 113 -522 14 -40 22 -79 18
-85 -4 -7 -3 -8 4 -4 7 4 15 -6 20 -26 42 -146 225 -477 349 -633 5 -5 24 -30
43 -55 99 -129 286 -310 455 -442 92 -73 235 -162 360 -227 55 -28 106 -56
113 -62 6 -5 12 -8 12 -5 0 3 21 -4 48 -15 52 -22 80 -34 115 -48 152 -63 416
-124 637 -148 86 -9 427 -10 515 0 316 33 628 124 900 262 727 370 1236 1060
1369 1855 25 154 26 166 30 385 3 187 -3 289 -27 450 -25 166 -99 427 -164
575 -50 115 -123 257 -174 339 -33 51 -59 95 -59 97 0 3 -5 10 -10 17 -6 7
-36 46 -67 87 -313 415 -723 716 -1206 885 -65 23 -114 45 -110 49 4 4 0 4 -9
1 -9 -4 -50 2 -90 13 -204 55 -410 81 -655 80 -89 0 -164 -2 -165 -3z"/>
</g>
</svg>
